# xmcd
#
# Track frame offsets:
#	150
#	12840
#	19316
#	33551
#	47717
#	57194
#	66298
#	77733
#	93425
#	108062
#	116311
#	126728
#	139791
#	156315
#	172779
#	184608
#	204157
#	214840
#	220301
#	238391
#	252778
#	264030
#	272366
#	287337
#	293913
#	309503
#	317350
#	328737
#	344790
#
# Disc length: 4732 seconds
#
# Revision: 1
# Processed by: cddbd v1.4PL0 Copyright (c) Steve Scherf et al.
# Submitted via: audiograbber 1.80.04
#
DISCID=a4127a1d
DTITLE=Frank Sinatra - All Or Nothing At All - Radio Rules Ok!
DYEAR=1900
DGENRE=Blues
TTITLE0=I Couldn't Sleep A Week Last Night
TTITLE1=My Ideal
TTITLE2=White Christmas
TTITLE3=Close To You
TTITLE4=You'll Never Know
TTITLE5=Come Out, Wherever You Are
TTITLE6=Long Ago (And Far Away)
TTITLE7=Amor
TTITLE8=I'll Walk Alone
TTITLE9=Some Other Time
TTITLE10=There's No You
TTITLE11=There Goes That Song Again
TTITLE12=With A Song In My Heart
TTITLE13=Guess I'll Hang My Tears Out To Dry
TTITLE14=If I Loved Her
TTITLE15=I Begged Her
TTITLE16=How Deep Is The Ocean
TTITLE17=Great Day!
TTITLE18=Over The Rainbow
TTITLE19=Bess, Oh Where Is My Bess?
TTITLE20=I Only Have Eyes For You
TTITLE21=Exactly Like You
TTITLE22=Embraceable You
TTITLE23=Five Minutes More
TTITLE24=Goin' Home
TTITLE25=I've Got A Crush On You
TTITLE26=Bye Bye Baby
TTITLE27=Body And Soul
TTITLE28=Put Your Dreams Away
EXTD=
EXTT0=
EXTT1=
EXTT2=
EXTT3=
EXTT4=
EXTT5=
EXTT6=
EXTT7=
EXTT8=
EXTT9=
EXTT10=
EXTT11=
EXTT12=
EXTT13=
EXTT14=
EXTT15=
EXTT16=
EXTT17=
EXTT18=
EXTT19=
EXTT20=
EXTT21=
EXTT22=
EXTT23=
EXTT24=
EXTT25=
EXTT26=
EXTT27=
EXTT28=
PLAYORDER=
